<?xml version="1.0" standalone="no"?>
<!DOCTYPE svg PUBLIC "-//W3C//DTD SVG 20010904//EN"
 "http://www.w3.org/TR/2001/REC-SVG-20010904/DTD/svg10.dtd">
<svg version="1.0" xmlns="http://www.w3.org/2000/svg"
 width="500.000000pt" height="500.000000pt" viewBox="0 0 500.000000 500.000000"
 preserveAspectRatio="xMidYMid meet">
<metadata>
Created by potrace 1.14, written by Peter Selinger 2001-2017
</metadata>
<g transform="translate(0.000000,500.000000) scale(0.100000,-0.100000)"
fill="#000000" stroke="none">
<path d="M2427 4935 c-23 -12 -478 -310 -1012 -662 -533 -351 -1002 -660
-1041 -685 -53 -34 -73 -53 -78 -74 -9 -37 -23 -773 -28 -1459 -3 -479 -1
-535 14 -585 10 -31 28 -65 40 -77 40 -36 2205 -1323 2227 -1323 11 0 105 55
208 123 103 68 564 370 1023 671 459 301 849 563 867 582 85 96 90 159 95
1309 2 666 0 845 -10 865 -39 76 -61 107 -97 135 -22 17 -191 117 -375 224
-184 107 -371 215 -415 241 -416 246 -1188 688 -1233 705 -88 35 -135 37 -185
10z m369 -215 c148 -88 273 -166 278 -174 23 -34 -14 -67 -236 -213 -236 -155
-286 -182 -332 -183 -24 0 -27 -2 -16 -15 16 -20 -8 -30 -54 -22 -30 5 -495
269 -538 305 -31 26 -21 35 33 30 l51 -5 -28 22 c-49 39 -29 59 232 231 220
145 285 182 325 183 8 1 137 -71 285 -159z m768 -445 c152 -91 276 -168 276
-170 0 -32 -36 -65 -167 -153 -263 -175 -343 -225 -376 -231 -23 -5 -31 -12
-29 -24 4 -22 -20 -31 -61 -23 -32 6 -517 283 -547 312 -13 13 -13 16 0 24 8
6 26 8 40 5 l25 -6 -25 20 c-24 19 -24 22 -10 48 9 18 90 78 220 165 225 150
309 198 350 198 18 0 128 -60 304 -165z m-1481 -21 c144 -87 270 -164 279
-172 35 -30 -1 -64 -233 -217 -253 -167 -263 -172 -318 -181 -23 -4 -41 -11
-41 -17 0 -5 -19 -8 -47 -5 -39 4 -94 32 -303 155 -258 151 -297 183 -226 183
26 0 34 4 30 14 -3 8 0 24 6 36 14 26 478 336 523 349 17 5 40 10 50 10 11 1
137 -69 280 -155z m2212 -427 c172 -104 271 -169 273 -181 2 -10 -7 -29 -20
-43 -35 -39 -455 -313 -504 -330 -24 -8 -42 -20 -41 -26 1 -8 -14 -12 -43 -12
-40 1 -75 18 -290 144 -135 79 -253 150 -262 159 -25 21 -22 32 9 32 21 0 24
3 15 12 -37 37 -12 60 253 234 222 145 275 174 315 173 14 0 146 -73 295 -162z
m-1464 -20 c150 -90 274 -168 276 -174 8 -23 -53 -73 -262 -213 -145 -96 -242
-154 -278 -166 l-55 -17 -281 168 c-191 114 -281 173 -281 184 0 27 41 59 254
201 227 151 278 179 323 180 23 0 103 -43 304 -163z m-1458 -42 c290 -173 294
-176 240 -227 -56 -52 -455 -309 -499 -320 -30 -8 -43 -17 -41 -28 3 -24 -64
-25 -110 -2 -122 63 -499 293 -501 306 -3 12 5 16 30 16 27 1 30 2 15 11 -25
15 -21 41 11 71 32 31 443 305 487 325 60 27 88 15 368 -152z m865 -379 c138
-81 256 -153 262 -161 16 -20 -9 -29 -55 -22 -31 5 -496 269 -537 305 -30 26
-21 35 31 30 41 -4 91 -29 299 -152z m1347 -29 c192 -116 271 -169 273 -183 4
-28 -16 -44 -253 -201 -229 -153 -254 -167 -304 -178 -22 -5 -29 -10 -21 -15
25 -16 -2 -32 -44 -28 -30 4 -109 45 -286 148 -307 180 -320 190 -238 190 41
0 42 0 20 16 -29 20 -28 45 6 76 41 38 418 287 476 314 28 13 62 24 76 24 14
-1 142 -71 295 -163z m-1491 -40 c148 -89 271 -167 273 -173 8 -25 -51 -73
-263 -214 -220 -147 -302 -188 -342 -172 -10 4 -138 79 -285 166 -178 106
-267 164 -267 176 0 9 15 30 33 46 37 35 437 300 482 320 66 29 85 22 369
-149z m-631 -397 c309 -182 327 -193 327 -208 0 -11 -11 -13 -47 -10 -39 4
-94 32 -293 148 -135 79 -253 150 -262 158 -27 22 -10 35 38 29 33 -3 94 -34
237 -117z m1371 -45 c152 -91 276 -168 276 -170 0 -36 -39 -68 -260 -215 -226
-150 -299 -188 -339 -177 -34 8 -561 329 -561 341 0 29 46 66 253 203 234 153
285 182 328 183 17 0 130 -62 303 -165z m-2081 -283 c254 -149 295 -182 224
-182 -38 0 -56 8 -297 144 -265 150 -311 184 -267 199 33 11 108 -25 340 -161z
m1246 -3 c31 -11 488 -276 517 -299 24 -21 16 -30 -29 -30 -38 0 -77 20 -303
151 -142 84 -262 157 -266 162 -17 27 25 35 81 16z m2011 -129 c-7 -12 -10
-37 -8 -55 2 -19 0 -31 -4 -29 -12 8 -10 59 4 89 6 14 13 23 15 21 3 -2 -1
-14 -7 -26z m40 -37 c-11 -17 -11 -17 -6 0 3 10 7 28 7 40 2 22 2 22 6 0 2
-12 -1 -30 -7 -40z m-2735 -203 c193 -105 460 -269 463 -285 4 -15 -3 -17 -50
-12 -46 4 -85 23 -303 151 -137 81 -254 151 -259 156 -5 5 -6 16 -2 25 9 24
67 10 151 -35z m-829 -193 c56 -21 524 -301 524 -313 0 -39 -79 -23 -189 41
-322 183 -416 243 -419 264 -3 17 1 21 25 20 15 0 42 -6 59 -12z m2804 -67
c-7 -12 -10 -35 -8 -51 3 -15 1 -26 -4 -23 -4 3 -8 16 -8 29 0 25 20 78 27 71
3 -2 -1 -14 -7 -26z m47 -7 c-3 -10 -5 -4 -5 12 0 17 2 24 5 18 2 -7 2 -21 0
-30z m-1372 -111 c54 -27 439 -254 473 -279 42 -31 32 -47 -27 -41 -37 4 -95
33 -298 152 -138 81 -254 155 -258 164 -13 34 46 36 110 4z m2074 -68 c-7 -9
-16 -37 -20 -63 l-6 -46 -2 40 c-1 36 20 85 36 85 3 0 -1 -7 -8 -16z m51 -32
c0 -29 -24 -72 -41 -72 -14 0 -11 25 8 65 20 42 33 45 33 7z m-2595 -336 c152
-89 260 -158 260 -166 0 -11 -12 -15 -46 -14 -41 0 -76 17 -304 150 -141 82
-259 155 -262 163 -9 20 18 31 57 25 19 -4 152 -75 295 -158z m1131 106 c1 -7
0 -8 -3 -2 -17 34 -58 -36 -49 -84 4 -22 3 -27 -4 -16 -15 23 -12 52 10 88 20
32 41 39 46 14z m24 -49 c0 -5 -9 -21 -19 -36 -12 -19 -21 -25 -26 -18 -8 13
20 61 35 61 6 0 10 -3 10 -7z m677 -224 c1 -19 1 -20 -4 -4 -3 11 -10 24 -17
28 -7 6 -6 7 4 4 8 -2 16 -14 17 -28z m-47 -9 c-7 -12 -10 -35 -8 -51 3 -15 1
-26 -4 -23 -4 3 -8 16 -8 29 0 25 20 78 27 71 3 -2 -1 -14 -7 -26z m-1056
-263 c143 -84 261 -157 263 -164 6 -19 -33 -25 -79 -13 -54 15 -538 297 -538
314 0 56 72 28 354 -137z m374 -210 c2 -15 8 -27 13 -27 6 0 6 -8 -1 -20 -18
-33 -28 -22 -22 25 5 51 -8 59 -34 20 -12 -18 -15 -37 -11 -63 5 -25 3 -32 -3
-22 -16 25 -11 66 11 94 25 32 43 29 47 -7z"/>
</g>
</svg>
