<?xml version="1.0" standalone="no"?>
<!DOCTYPE svg PUBLIC "-//W3C//DTD SVG 20010904//EN"
 "http://www.w3.org/TR/2001/REC-SVG-20010904/DTD/svg10.dtd">
<svg version="1.0" xmlns="http://www.w3.org/2000/svg"
 width="1024.000000pt" height="1024.000000pt" viewBox="0 0 1024.000000 1024.000000"
 preserveAspectRatio="xMidYMid meet">
<metadata>
Created by potrace 1.14, written by Peter Selinger 2001-2017
</metadata>
<g transform="translate(0.000000,1024.000000) scale(0.100000,-0.100000)"
fill="#000000" stroke="none">
<path d="M0 5120 l0 -5120 5120 0 5120 0 0 5120 0 5120 -5120 0 -5120 0 0
-5120z m4780 3907 c17 -8 29 -27 38 -61 17 -59 4 -99 -42 -127 -30 -18 -81
-19 -1534 -19 -1496 0 -1503 0 -1565 -21 -131 -44 -234 -129 -295 -244 l-27
-50 -3 -1514 c-3 -1680 4 -1538 -68 -1561 -27 -9 -40 -8 -69 6 -70 33 -65 -97
-65 1536 l0 1477 25 79 c14 44 33 90 43 103 10 13 28 41 40 62 12 20 26 43 31
50 126 161 304 264 496 287 33 4 715 8 1515 8 1146 1 1460 -1 1480 -11z m3920
-11 c193 -65 330 -182 411 -351 79 -162 74 -51 74 -1707 l0 -1476 -24 -26
c-44 -47 -106 -42 -156 14 -20 22 -20 40 -25 1529 l-5 1506 -32 65 c-43 86
-128 171 -212 213 l-66 32 -1572 5 -1573 5 -32 33 c-29 28 -33 39 -33 83 0 43
4 54 27 74 l26 22 1569 -1 c1501 -1 1570 -2 1623 -20z m-4039 -625 l29 -29 0
-1077 c0 -1169 2 -1117 -55 -1143 -40 -18 -71 -14 -102 12 l-28 24 -1 1074
c-1 829 2 1080 11 1104 12 30 63 63 98 64 10 0 32 -13 48 -29z m-1066 -54
c259 -4 272 -5 328 -28 125 -53 237 -164 282 -282 19 -50 20 -81 23 -742 3
-752 2 -764 -55 -878 -36 -72 -145 -176 -227 -217 l-70 -35 -234 0 c-234 0
-234 0 -253 24 -24 29 -24 64 -2 102 29 48 74 59 248 59 85 0 177 5 204 11 61
13 122 56 156 109 54 86 56 112 53 833 -3 734 0 697 -70 764 -18 18 -60 44
-92 59 l-59 27 -746 1 -746 1 -67 -32 c-73 -34 -144 -95 -189 -160 l-29 -42 0
-2804 c-1 -2167 2 -2815 11 -2853 10 -40 25 -62 83 -119 120 -119 -28 -108
1476 -106 l1297 2 32 -31 c25 -26 31 -40 31 -76 0 -52 -22 -80 -72 -89 -18 -3
-604 -5 -1303 -3 l-1270 4 -75 23 c-113 34 -183 76 -254 152 -73 77 -122 168
-136 254 -12 70 -17 5567 -5 5627 4 21 11 35 16 32 5 -3 6 2 3 10 -7 17 48
118 67 125 12 4 12 2 1 -12 -8 -9 -12 -22 -10 -28 2 -6 12 8 22 32 29 68 36
82 54 104 21 26 117 98 157 118 54 27 161 58 226 65 60 7 596 6 1194 -1z
m4585 -16 c91 -29 201 -102 265 -178 66 -77 84 -111 119 -220 l26 -83 0 -1037
c1 -1166 5 -1090 -75 -1213 -76 -117 -166 -187 -315 -244 -52 -20 -74 -21
-405 -21 -389 0 -383 1 -425 -68 -19 -31 -20 -54 -20 -524 l0 -491 -32 -32
c-28 -28 -36 -31 -70 -26 -22 4 -51 14 -64 23 l-25 16 3 516 3 516 26 55 c39
82 99 143 177 182 l67 33 360 1 c350 0 361 1 410 23 69 31 128 91 164 171 l31
67 -2 1049 -3 1049 -30 53 c-38 69 -113 137 -195 176 l-65 31 -1325 0 -1325 0
-67 -32 c-76 -36 -136 -93 -170 -161 l-23 -47 -5 -705 c-3 -389 -9 -712 -14
-720 -20 -33 -50 -60 -68 -60 -32 0 -77 29 -93 60 -13 25 -15 121 -15 709 0
465 4 697 11 733 42 195 245 373 470 412 47 8 433 10 1353 8 1222 -3 1289 -4
1346 -21z m-4525 -261 c18 -11 36 -28 40 -38 4 -9 6 -228 5 -485 -2 -507 -4
-531 -57 -629 -36 -66 -131 -168 -194 -208 -28 -18 -80 -44 -117 -58 -66 -25
-73 -26 -392 -30 -179 -2 -386 -1 -460 3 -133 7 -134 7 -163 38 -24 26 -28 37
-23 66 3 19 17 46 31 60 l25 26 448 5 447 5 67 32 c81 38 142 98 174 169 l24
55 0 425 c0 355 -2 431 -15 461 -20 48 -19 66 8 90 42 39 102 44 152 13z
m-661 -240 c65 -25 144 -96 175 -158 32 -64 54 -160 48 -212 -18 -154 -117
-270 -266 -314 -237 -70 -473 130 -447 378 15 141 128 271 276 317 51 15 158
10 214 -11z m2630 -100 c32 -39 41 -85 26 -141 -17 -62 -44 -89 -93 -89 -32 0
-46 7 -78 39 -34 34 -39 44 -39 85 0 86 43 136 116 136 35 0 47 -5 68 -30z
m1979 -29 c142 -19 289 -116 376 -246 93 -139 95 -152 99 -590 3 -372 3 -382
-18 -407 -26 -34 -70 -44 -107 -24 -60 30 -58 17 -63 435 -5 366 -6 388 -26
432 -28 60 -78 115 -139 154 -99 63 -50 60 -905 65 l-785 5 -3 95 -3 95 753
-3 c414 -1 784 -6 821 -11z m-1315 -468 c-10 -2 -18 -9 -18 -15 0 -6 -9 -8
-20 -5 -22 6 -23 3 -14 -30 5 -19 13 -23 50 -23 39 0 43 2 46 27 2 14 9 28 16
29 7 1 8 0 3 -2 -6 -3 -7 -12 -4 -20 3 -8 0 -21 -7 -29 -6 -8 -9 -19 -5 -25 3
-5 1 -10 -4 -10 -6 0 -11 -11 -11 -25 0 -22 4 -25 40 -25 34 0 41 4 46 25 4
14 9 24 11 21 3 -3 0 -21 -7 -41 -14 -42 -60 -75 -104 -75 -39 0 -98 40 -90
60 3 8 8 31 11 50 3 27 2 31 -6 20 -6 -8 -11 -25 -11 -37 0 -12 -5 -25 -11
-28 -10 -7 -6 35 8 90 l5 20 -15 -20 c-9 -11 -13 -30 -10 -42 3 -14 1 -23 -6
-23 -29 0 5 102 40 121 11 5 19 6 19 2 0 -4 5 -2 12 5 7 7 21 11 33 11 16 -1
17 -2 3 -6z m37 -13 c-3 -5 -12 -10 -18 -10 -7 0 -6 4 3 10 19 12 23 12 15 0z
m80 -69 c-8 -14 -45 -14 -45 0 0 6 9 9 20 6 11 -3 20 0 20 6 0 6 3 8 6 4 3 -3
3 -10 -1 -16z m912 -46 c117 -49 189 -131 220 -249 22 -82 9 -170 -38 -263
-39 -76 -81 -116 -166 -155 -107 -50 -238 -36 -344 38 -52 36 -86 83 -122 167
-26 64 -29 79 -25 151 9 160 104 277 261 321 62 18 158 13 214 -10z m-1174
-768 c134 -57 181 -230 88 -330 -82 -89 -221 -76 -293 28 -71 104 -27 248 92
299 44 19 72 20 113 3z m-2932 -209 c159 -75 234 -251 180 -425 -26 -86 -78
-148 -157 -188 -54 -27 -68 -30 -159 -30 -115 0 -158 16 -233 89 -128 122
-139 336 -23 470 27 31 104 80 156 98 69 25 165 19 236 -14z m4443 -134 c3 -9
6 -54 6 -100 l0 -85 -304 1 c-284 1 -308 0 -350 -18 -57 -26 -130 -93 -164
-151 l-27 -46 0 -1390 0 -1390 28 -57 c32 -65 90 -122 153 -150 43 -19 44 -20
46 -71 l2 -52 3 47 4 47 199 -1 c109 0 203 -4 208 -7 31 -21 42 -94 18 -127
-13 -17 -29 -19 -168 -21 -84 -1 -176 -4 -205 -8 -44 -5 -52 -4 -56 12 -4 14
-5 12 -6 -6 -1 -21 -4 -23 -38 -17 -21 4 -70 22 -109 41 -118 57 -214 177
-249 310 -13 52 -15 233 -15 1460 l0 1400 24 58 c59 142 162 241 311 296 95
36 125 39 411 40 239 1 273 -1 278 -15z m430 -45 c3 -34 6 -79 6 -100 l0 -39
-100 0 -100 0 0 100 0 100 94 0 93 0 7 -61z m-2311 19 c27 -36 29 -109 3 -137
-19 -21 -22 -21 -620 -21 -668 0 -633 -3 -662 66 -13 30 -12 38 1 64 33 63 0
60 659 58 l599 -3 20 -27z m-2318 -516 c-3 -3 -11 0 -18 7 -9 10 -8 11 6 5 10
-3 15 -9 12 -12z m92 12 c-3 -3 -12 -4 -19 -1 -8 3 -5 6 6 6 11 1 17 -2 13 -5z
m116 -1 c-13 -2 -33 -2 -45 0 -13 2 -3 4 22 4 25 0 35 -2 23 -4z m160 0 c-13
-2 -33 -2 -45 0 -13 2 -3 4 22 4 25 0 35 -2 23 -4z m637 -13 c19 -5 58 -10 86
-10 95 0 174 -12 174 -26 0 -11 19 -14 78 -14 82 0 108 -12 131 -57 7 -13 19
-23 27 -23 8 0 13 3 11 8 -3 4 14 8 36 8 34 2 37 0 17 -6 -24 -8 -24 -8 -2 -9
15 -1 22 -7 22 -21 0 -11 7 -20 16 -20 8 0 12 5 9 10 -3 6 3 10 14 10 12 0 21
-4 21 -10 0 -5 -5 -10 -12 -10 -6 0 -9 -3 -6 -6 4 -3 17 0 30 7 23 13 22 13
-17 25 l-40 12 33 1 c18 1 39 -4 46 -11 18 -17 -30 -61 -59 -54 -20 5 -20 5 0
-10 11 -8 26 -12 33 -9 10 3 12 0 9 -10 -4 -8 1 -19 11 -24 9 -6 12 -11 6 -11
-6 0 -17 7 -24 15 -6 8 -37 24 -67 35 -30 11 -61 27 -70 35 -8 8 -20 15 -26
15 -7 0 -6 -5 3 -11 12 -9 11 -10 -5 -4 -11 4 -44 9 -73 12 l-53 6 23 21 23
21 -22 3 c-11 2 -36 -1 -54 -6 -30 -8 -31 -11 -15 -18 13 -5 21 -3 24 4 2 7 8
12 14 12 6 0 6 -6 -2 -15 -11 -13 -64 -15 -374 -14 -215 1 -339 5 -308 9 29 4
55 10 58 13 3 2 -129 4 -293 3 -164 0 -273 2 -243 6 59 7 618 12 935 8 105 -1
187 1 183 5 -3 3 -161 7 -350 8 -188 0 -324 3 -300 5 34 2 42 7 42 23 0 16 7
19 40 19 22 0 40 5 40 10 0 15 77 12 84 -2 3 -9 9 -7 20 6 9 11 14 22 11 24
-2 3 -30 10 -62 17 l-58 13 95 -4 c52 -2 111 -8 130 -14z m136 11 c-27 -4 -66
-4 -85 0 -25 5 -10 7 49 7 72 -1 78 -2 36 -7z m151 3 c-3 -3 -12 -4 -19 -1 -8
3 -5 6 6 6 11 1 17 -2 13 -5z m-1352 -35 c-9 -17 -19 -29 -22 -26 -5 5 25 57
33 57 3 0 -3 -14 -11 -31z m1500 20 c9 -14 -4 -27 -13 -13 -4 6 -14 14 -22 17
-10 4 -8 6 7 6 12 1 25 -4 28 -10z m85 -39 c0 -5 -4 -10 -10 -10 -5 0 -10 5
-10 10 0 6 5 10 10 10 6 0 10 -4 10 -10z m-1519 -40 l34 -8 -39 -1 c-22 -1
-36 -4 -32 -8 4 -4 28 -7 54 -6 l47 1 -45 -7 c-33 -5 -50 -3 -63 8 -10 9 -14
17 -8 19 5 2 7 11 4 20 -4 13 -3 14 5 4 5 -8 25 -18 43 -22z m1560 21 c-11 -7
-9 -10 10 -13 13 -3 3 -4 -23 -4 -68 1 -59 19 12 24 13 2 13 0 1 -7z m66 3
c-3 -3 -12 -4 -19 -1 -8 3 -5 6 6 6 11 1 17 -2 13 -5z m-1707 -18 c0 -3 -4 -8
-10 -11 -5 -3 -10 -1 -10 4 0 6 5 11 10 11 6 0 10 -2 10 -4z m575 -16 c50 -7
50 -7 -20 -8 -38 0 -113 4 -165 8 l-95 7 115 1 c63 0 138 -3 165 -8z m1255
-36 c34 -28 39 -35 20 -29 -20 6 -23 5 -12 -6 6 -7 12 -21 12 -31 0 -11 7 -18
18 -18 21 0 41 -18 38 -34 -2 -6 -1 -8 1 -3 10 16 21 5 25 -23 l5 -30 -24 22
c-13 12 -21 28 -19 35 3 8 -2 13 -15 13 -26 0 -49 23 -49 49 0 12 -6 21 -16
21 -8 0 -22 7 -30 15 -8 8 -23 19 -32 24 -9 5 -14 13 -10 17 4 4 24 -6 43 -21
20 -15 39 -24 43 -20 4 3 0 10 -8 15 -29 17 -55 39 -45 40 6 0 30 -16 55 -36z
m-1697 -1 c-7 -2 -19 -2 -25 0 -7 3 -2 5 12 5 14 0 19 -2 13 -5z m2621 -13
c148 -56 247 -237 217 -400 -24 -127 -97 -215 -218 -260 -83 -31 -206 -25
-287 14 -117 57 -178 154 -184 293 -6 133 36 223 139 299 103 75 223 95 333
54z m-2218 -2 c4 -5 -103 -8 -239 -8 -135 0 -248 3 -250 8 -3 4 104 7 238 7
134 0 247 -3 251 -7z m77 -5 c-7 -2 -21 -2 -30 0 -10 3 -4 5 12 5 17 0 24 -2
18 -5z m1304 -60 c24 -22 13 -23 -17 -1 -16 12 -30 26 -30 31 0 9 19 -3 47
-30z m47 -73 c-6 -5 -24 21 -24 34 0 6 6 1 14 -10 8 -10 12 -21 10 -24z m43
-45 c4 -4 2 -5 -4 -1 -7 4 -13 2 -13 -3 0 -6 7 -11 15 -11 12 0 13 -4 5 -19
-15 -29 -12 -37 6 -15 13 16 15 16 10 2 -3 -10 0 -21 7 -25 12 -7 40 -83 32
-83 -2 0 -13 20 -24 45 -11 25 -22 45 -25 45 -8 0 5 -63 17 -77 6 -9 6 -13 -1
-13 -7 0 -18 26 -27 58 -8 31 -19 69 -24 83 -6 20 -5 26 5 25 7 -1 17 -6 21
-11z m-125 -31 c-9 -16 -10 -14 -9 8 1 15 6 23 11 18 4 -4 4 -16 -2 -26z m5
-46 c-3 -8 -6 -5 -6 6 -1 11 2 17 5 13 3 -3 4 -12 1 -19z m100 -28 c1 -21 1
-21 -3 -3 -3 12 -13 24 -22 27 -12 3 -11 4 3 3 14 -2 21 -10 22 -27z m2695 19
c60 -12 125 -47 167 -88 87 -85 129 -275 87 -390 -21 -57 -86 -141 -135 -176
-22 -14 -60 -33 -87 -41 -57 -17 -172 -18 -224 -3 -46 14 -136 81 -132 98 1 7
-2 10 -8 6 -13 -8 -65 75 -86 138 -24 73 -16 207 16 267 36 67 88 118 154 152
89 45 158 56 248 37z m-2772 -44 c0 -5 -5 -3 -10 5 -5 8 -10 20 -10 25 0 6 5
3 10 -5 5 -8 10 -19 10 -25z m60 5 c0 -5 -4 -10 -10 -10 -5 0 -10 5 -10 10 0
6 5 10 10 10 6 0 10 -4 10 -10z m-1635 -10 c28 -4 -170 -6 -439 -4 -269 2
-491 6 -494 9 -9 8 878 4 933 -5z m820 0 c-30 -8 -30 -8 8 -9 20 0 37 4 37 9
0 14 96 12 123 -2 71 -40 86 -85 43 -135 l-24 -28 -289 -1 c-396 -1 -941 9
-833 17 47 3 -61 5 -240 5 -289 0 -303 -1 -120 -6 l205 -6 -325 -4 c-179 -3
-360 -5 -402 -5 -43 1 -73 -2 -67 -6 6 -3 -4 -9 -22 -13 -41 -8 -136 -102
-144 -143 -4 -15 -10 -34 -14 -42 -4 -8 -3 -45 1 -82 4 -37 7 -467 6 -955 l-3
-888 -34 -20 c-32 -19 -35 -19 -66 -2 -70 38 -66 -24 -63 1030 l3 949 23 15
c12 8 22 22 22 31 -1 14 -2 14 -14 -1 -16 -22 -26 -23 -26 -3 0 8 5 15 10 15
6 0 10 6 9 13 -3 28 2 47 19 63 9 10 15 18 12 19 -3 1 2 9 11 18 9 9 20 13 23
9 4 -3 4 2 0 12 -6 15 -4 17 16 11 15 -5 25 -3 31 6 4 7 11 10 15 6 4 -3 1
-13 -6 -22 -7 -8 -8 -15 -2 -15 13 0 23 26 16 44 -3 8 3 16 16 19 32 8 50 -2
47 -26 -2 -20 3 -22 57 -25 32 -2 64 2 69 7 6 6 22 12 36 12 25 2 24 2 -4 9
-25 6 -23 7 10 3 100 -10 895 -15 895 -5 0 6 19 12 43 14 23 2 -52 2 -168 1
-115 -2 -307 -5 -425 -6 l-215 -2 21 22 c25 27 104 34 104 9 0 -18 78 -25 213
-18 l107 5 0 43 c0 50 -3 48 99 38 50 -6 61 -10 61 -25 0 -17 9 -19 80 -19 73
0 80 2 80 20 0 19 7 20 139 20 76 0 165 2 197 4 32 2 42 1 22 -1 -29 -3 -38
-9 -38 -24 0 -16 7 -19 40 -19 22 0 40 5 40 10 0 6 18 10 40 10 33 0 40 3 38
18 -3 15 8 17 114 18 65 0 121 4 125 7 3 4 61 6 127 6 77 -1 110 -4 91 -9z
m-1852 -7 c-7 -2 -19 -2 -25 0 -7 3 -2 5 12 5 14 0 19 -2 13 -5z m2702 -3 c3
-5 1 -10 -4 -10 -6 0 -11 5 -11 10 0 6 2 10 4 10 3 0 8 -4 11 -10z m-2222 -7
c-24 -2 -62 -2 -85 0 -24 2 -5 4 42 4 47 0 66 -2 43 -4z m2145 -7 c-7 -8 -15
-12 -17 -11 -5 6 10 25 20 25 5 0 4 -6 -3 -14z m49 -23 c-3 -10 -5 -4 -5 12 0
17 2 24 5 18 2 -7 2 -21 0 -30z m-2757 18 c0 -8 -54 -32 -69 -31 -4 1 46 30
67 39 1 1 2 -3 2 -8z m2737 -13 c-3 -8 -6 -5 -6 6 -1 11 2 17 5 13 3 -3 4 -12
1 -19z m123 -43 c0 -17 -2 -17 -10 -5 -5 8 -10 24 -10 35 0 17 2 17 10 5 5 -8
10 -24 10 -35z m-2850 21 c-14 -7 -38 -16 -55 -19 -26 -5 -25 -4 10 13 45 22
85 27 45 6z m-90 -6 c0 -5 -6 -10 -14 -10 -8 0 -29 -12 -46 -26 -17 -15 -34
-23 -38 -19 -4 3 0 10 8 15 8 5 29 18 45 29 34 22 45 25 45 11z m2827 -22 c-3
-8 -6 -5 -6 6 -1 11 2 17 5 13 3 -3 4 -12 1 -19z m-1844 -25 c-13 -2 -33 -2
-45 0 -13 2 -3 4 22 4 25 0 35 -2 23 -4z m1966 -628 c0 -531 0 -552 -19 -583
-25 -41 -42 -48 -80 -32 -28 12 -48 43 -41 65 2 6 4 111 4 235 1 220 1 222 7
70 6 -154 6 -155 9 -50 2 58 6 95 8 83 4 -19 11 -23 43 -23 l39 0 4 -82 c4
-98 8 203 10 637 0 176 4 293 8 270 4 -22 8 -288 8 -590z m-152 573 c-3 -8 -6
-5 -6 6 -1 11 2 17 5 13 3 -3 4 -12 1 -19z m31 -93 c0 -96 -5 -81 -11 35 -2
47 0 76 4 65 4 -11 7 -56 7 -100z m-748 0 c107 -55 160 -137 168 -258 6 -105
-21 -176 -92 -243 -33 -31 -73 -58 -102 -68 -166 -56 -343 42 -390 217 -18 67
-18 101 2 167 19 66 98 149 176 186 46 21 64 25 128 21 46 -2 89 -11 110 -22z
m-3304 -91 c14 -9 30 -26 37 -38 9 -16 13 -360 17 -1456 l5 -1435 29 -62 c35
-76 136 -177 217 -216 30 -15 82 -32 115 -37 36 -6 627 -10 1558 -10 1677 0
1525 7 1546 -71 14 -51 1 -97 -34 -123 l-27 -21 -1497 0 -1497 0 -80 23 c-165
48 -298 130 -385 240 -58 72 -120 205 -136 289 -19 103 -21 2836 -2 2879 12
27 57 53 91 54 10 0 29 -7 43 -16z m4021 -46 c-2 -13 -4 -3 -4 22 0 25 2 35 4
23 2 -13 2 -33 0 -45z m3820 42 c18 -11 36 -32 40 -47 5 -15 8 -660 7 -1433
l0 -1405 -25 -82 c-47 -151 -149 -282 -292 -376 -88 -58 -104 -65 -212 -99
l-70 -22 -1520 -4 c-1402 -3 -1522 -2 -1551 13 -68 36 -82 128 -29 181 l24 24
1530 0 c1082 0 1546 3 1583 11 87 18 180 74 252 149 111 118 100 -47 106 1603
l5 1439 37 34 c43 39 69 42 115 14z m-5326 -128 c18 -21 29 -43 29 -63 0 -36
-23 -84 -45 -93 -9 -3 -110 -6 -223 -6 -170 -1 -215 -4 -253 -18 -83 -31 -128
-83 -144 -167 -4 -22 -6 -384 -6 -805 l2 -765 28 -35 c15 -19 47 -45 71 -57
40 -21 58 -23 202 -23 l158 0 0 208 c1 343 8 471 31 519 23 48 90 113 148 142
100 51 90 51 1049 51 l894 0 29 -29 c24 -25 29 -37 29 -80 0 -52 -25 -90 -59
-92 -9 0 -407 0 -886 0 -509 1 -886 -3 -909 -8 -45 -11 -81 -35 -110 -75 -20
-26 -21 -44 -26 -389 -5 -332 -7 -364 -24 -389 -30 -45 -70 -50 -317 -46
l-224 3 -67 33 c-80 39 -145 102 -184 179 l-29 58 3 770 c2 424 8 801 13 838
5 38 21 94 35 124 53 111 195 219 319 242 28 5 137 9 243 8 l194 -2 29 -33z
m1536 -234 c-2 -13 -4 -3 -4 22 0 25 2 35 4 23 2 -13 2 -33 0 -45z m3214 33
l29 -29 0 -979 c0 -675 -3 -990 -11 -1018 -52 -189 -224 -355 -429 -414 -49
-14 -202 -16 -1323 -17 -698 -1 -1280 1 -1295 5 -15 4 -37 22 -49 39 -26 39
-18 81 22 122 l25 25 1303 5 1302 5 66 32 c36 18 79 46 96 62 36 35 86 106 99
141 4 14 11 467 14 1006 5 964 5 982 25 1004 42 47 86 51 126 11z m-3234 -58
c-2 -16 -4 -5 -4 22 0 28 2 40 4 28 2 -13 2 -35 0 -50z m867 -74 c22 -26 26
-42 28 -102 5 -145 3 -159 -21 -178 -42 -34 -148 -17 -165 26 -3 9 -6 64 -6
122 0 102 1 105 29 134 42 42 99 41 135 -2z m-837 -56 c-2 -16 -4 -3 -4 27 0
30 2 43 4 28 2 -16 2 -40 0 -55z m-40 -5 c-2 -13 -4 -3 -4 22 0 25 2 35 4 23
2 -13 2 -33 0 -45z m1933 -28 c0 -5 -2 -10 -4 -10 -3 0 -8 5 -11 10 -3 6 -1
10 4 10 6 0 11 -4 11 -10z m-1545 -10 c-3 -5 -12 -10 -18 -10 -7 0 -6 4 3 10
19 12 23 12 15 0z m121 -57 c3 3 0 15 -6 27 -6 12 -10 24 -7 26 8 9 37 -64 37
-94 0 -77 -41 -112 -122 -104 -47 4 -61 14 -35 26 6 3 2 3 -9 1 -13 -4 -24 0
-27 9 -7 18 3 57 13 51 4 -3 10 4 13 15 3 11 13 20 22 20 12 0 15 5 11 16 -5
13 0 15 27 10 21 -4 26 -3 13 2 -15 7 -17 10 -6 17 8 5 18 2 26 -10 18 -24 29
-13 15 13 -19 36 -12 38 10 3 11 -18 22 -31 25 -28z m1324 42 c-10 -12 -10
-15 3 -15 8 0 17 6 20 13 3 8 9 6 19 -7 10 -13 17 -15 22 -8 4 7 11 12 17 12
14 0 11 -27 -3 -34 -7 -3 2 -3 20 0 28 5 32 3 33 -18 1 -17 2 -19 6 -5 3 10
-2 29 -11 42 -20 30 -20 35 -1 35 9 0 12 -6 9 -15 -4 -8 -1 -15 5 -15 6 0 11
5 11 11 0 5 5 7 12 3 9 -6 9 -9 0 -12 -7 -2 -12 -8 -12 -14 0 -6 6 -8 14 -5
19 7 26 -13 26 -72 0 -69 -46 -111 -121 -111 -28 0 -30 2 -24 29 9 44 -28 75
-64 52 -9 -6 -10 -11 -2 -15 6 -4 11 -2 11 3 0 6 5 11 11 11 14 0 39 -25 39
-39 0 -16 -17 -13 -24 4 -3 8 -11 15 -17 15 -8 0 -8 -4 1 -15 19 -23 0 -18
-21 6 -35 40 -37 129 -3 129 13 0 13 -2 0 -16 -9 -8 -15 -25 -15 -37 1 -17 2
-18 6 -4 5 20 52 24 71 5 9 -9 12 -6 12 15 0 20 -5 27 -19 27 -10 0 -24 7 -31
15 -7 8 -16 12 -21 9 -13 -8 -11 5 4 21 16 19 33 19 17 0z m-1420 -10 c-7 -8
-21 -15 -30 -15 -11 0 -23 -12 -29 -27 l-11 -28 6 29 c5 26 3 28 -10 17 -9 -8
-16 -9 -16 -3 0 5 7 15 15 22 10 8 15 9 15 2 0 -7 11 -6 33 3 41 18 42 18 27
0z m-410 -334 c-4 -7 -7 67 -7 165 l0 179 7 -165 c4 -91 4 -171 0 -179z m330
262 c0 -19 -3 -24 -10 -17 -6 6 -8 18 -4 27 9 24 14 21 14 -10z m-950 -183
c-8 -5 -19 -10 -25 -10 -5 0 -3 5 5 10 8 5 20 10 25 10 6 0 3 -5 -5 -10z m48
-28 c8 -7 12 -22 9 -32 -3 -11 -1 -20 4 -20 5 0 9 7 9 15 0 8 5 15 11 15 7 0
9 -10 7 -25 -3 -14 -1 -22 5 -18 12 7 -1 -57 -16 -75 -16 -20 -63 -42 -89 -41
l-23 0 23 9 c31 13 28 17 -9 12 -25 -4 -31 -1 -36 19 -6 22 -7 22 -14 3 -7
-19 -8 -19 -8 1 -1 33 12 43 62 46 44 4 47 3 48 -21 1 -21 2 -22 6 -5 3 11 9
25 14 30 4 6 4 17 -1 25 -6 8 -10 24 -10 34 0 10 -8 25 -17 33 -14 10 -14 13
-3 11 8 -2 21 -9 28 -16z m-517 -34 c-6 -17 -6 -29 1 -36 7 -7 7 -16 0 -29
-10 -17 -11 -17 -17 0 -11 27 -26 20 -20 -10 5 -27 5 -27 -5 -4 -9 20 -7 27
10 43 11 10 20 26 19 36 0 13 -3 12 -11 -5 -15 -32 -30 -29 -16 2 7 16 17 24
26 20 10 -4 12 0 8 12 -5 13 -4 15 4 7 7 -7 8 -19 1 -36z m117 7 c-3 -3 -9 2
-12 12 -6 14 -5 15 5 6 7 -7 10 -15 7 -18z m292 -2 c0 -20 -3 -24 -11 -16 -7
7 -9 19 -6 27 10 24 17 19 17 -11z m3329 10 c-13 -15 -11 -16 11 -10 14 3 32
2 40 -4 10 -6 1 -8 -32 -5 -27 2 -48 0 -48 -5 0 -5 6 -9 13 -9 8 0 7 -4 -3
-11 -12 -9 -10 -10 8 -5 46 12 67 16 55 10 -26 -12 -12 -22 16 -11 35 13 60
-2 62 -37 1 -15 3 -16 6 -4 2 9 -3 33 -12 55 l-16 38 25 -30 c30 -36 34 -99
10 -134 -18 -25 -71 -51 -103 -51 -10 0 -29 9 -42 19 l-24 20 25 -5 c21 -4 22
-3 5 4 -11 5 -25 7 -32 5 -21 -8 -35 36 -28 88 4 27 11 47 16 43 5 -3 7 1 4 8
-3 7 7 21 22 30 35 22 39 22 22 1z m-3345 -71 c-6 -4 -13 -13 -16 -21 -2 -8
-4 9 -4 39 l0 53 15 -32 c10 -22 12 -34 5 -39z m103 26 c-3 -7 -5 -2 -5 12 0
14 2 19 5 13 2 -7 2 -19 0 -25z m-347 -17 c0 -36 -41 -97 -63 -93 -9 2 -17 -2
-17 -8 0 -5 -9 -10 -20 -10 -11 0 -20 4 -20 9 0 5 -9 11 -21 14 -36 10 -20 42
24 45 21 2 37 -1 37 -7 0 -6 -6 -11 -12 -11 -7 0 -5 -5 5 -11 24 -14 47 -4 46
18 -1 17 -2 17 -6 1 -2 -10 -9 -18 -14 -18 -12 0 -12 13 0 26 5 5 14 25 20 44
10 32 11 33 7 5 -3 -17 -1 -37 5 -45 6 -10 9 0 9 33 0 30 4 46 10 42 6 -3 10
-19 10 -34z m1834 -25 c72 -30 121 -146 97 -231 -27 -99 -82 -145 -172 -145
-69 0 -110 25 -156 94 -28 41 -33 57 -33 108 0 83 29 132 105 171 37 20 115
21 159 3z m1764 -410 c77 -39 128 -90 161 -160 43 -90 58 -172 44 -250 -15
-89 -38 -132 -108 -203 -52 -52 -72 -64 -129 -82 -38 -12 -87 -21 -110 -21
-66 0 -181 34 -170 51 3 5 -2 6 -11 3 -21 -8 -132 107 -165 172 -22 43 -25 62
-25 154 0 96 2 110 29 161 72 140 196 213 351 206 63 -3 91 -9 133 -31z
m-3600 -330 c58 -30 102 -103 102 -169 0 -42 -47 -135 -80 -159 -54 -39 -148
-35 -200 9 -51 42 -73 96 -68 168 4 69 30 114 82 146 37 23 125 25 164 5z
m1890 -63 c-21 -2 -55 -2 -75 0 -21 2 -4 4 37 4 41 0 58 -2 38 -4z m-1445 -17
c87 8 1570 10 1545 2 -20 -6 -19 -7 7 -5 34 1 58 -10 50 -24 -4 -5 1 -9 9 -9
37 0 36 -69 -2 -113 -15 -16 -64 -17 -873 -15 -845 3 -858 3 -873 23 -19 25
-20 62 -1 95 l14 25 11 -25 10 -25 -4 25 c-3 14 -2 30 2 36 8 14 46 23 50 13
2 -4 27 -5 55 -3z m-2208 -378 c17 -1 57 1 90 5 76 9 104 -9 112 -71 5 -36 2
-47 -17 -67 -23 -25 -24 -25 -216 -25 -195 0 -229 4 -217 23 3 6 1 7 -6 3 -15
-10 -50 32 -51 62 0 12 4 22 10 22 5 0 7 6 5 13 -3 7 7 20 22 30 24 15 44 17
133 13 58 -3 119 -7 135 -8z"/>
<path d="M2016 7933 c-6 -14 -5 -15 5 -6 7 7 10 15 7 18 -3 3 -9 -2 -12 -12z"/>
<path d="M3417 6258 c-7 -20 -7 -28 0 -30 3 -2 8 7 9 20 4 24 -1 30 -9 10z"/>
<path d="M2822 7650 c-80 -19 -132 -82 -132 -161 0 -94 67 -168 160 -177 98
-9 184 75 183 179 -1 62 -35 112 -97 144 -53 26 -62 28 -114 15z"/>
<path d="M6230 7061 c0 -11 4 -22 9 -25 4 -3 6 6 3 19 -5 30 -12 33 -12 6z"/>
<path d="M6313 7027 c7 -5 -2 -6 -23 -2 -26 5 -31 4 -20 -4 20 -14 38 -13 75
3 l30 13 -37 0 c-24 -1 -33 -4 -25 -10z"/>
<path d="M7145 6923 c-34 -9 -81 -50 -100 -89 -26 -55 -17 -134 22 -182 43
-54 87 -74 151 -69 91 7 150 85 140 188 -10 105 -111 177 -213 152z"/>
<path d="M2992 5920 c-86 -53 -105 -193 -36 -273 35 -41 107 -70 153 -63 94
16 131 51 151 139 11 51 -6 124 -39 161 -46 54 -168 73 -229 36z"/>
<path d="M3286 5563 c-6 -14 -5 -15 5 -6 7 7 10 15 7 18 -3 3 -9 -2 -12 -12z"/>
<path d="M7441 2544 c0 -11 3 -14 6 -6 3 7 2 16 -1 19 -3 4 -6 -2 -5 -13z"/>
<path d="M7456 2522 c-3 -6 -1 -14 5 -17 5 -4 8 -13 5 -21 -3 -8 -1 -14 4 -14
12 0 13 30 1 49 -5 8 -11 9 -15 3z"/>
<path d="M7040 2454 c0 -8 5 -12 10 -9 6 4 8 11 5 16 -9 14 -15 11 -15 -7z"/>
<path d="M7373 2463 c9 -2 25 -2 35 0 9 3 1 5 -18 5 -19 0 -27 -2 -17 -5z"/>
<path d="M7438 2463 c25 -10 10 -18 -30 -17 l-43 2 40 -7 c22 -4 44 -4 49 0
11 9 -1 29 -17 28 -9 0 -9 -2 1 -6z"/>
<path d="M7260 2439 c19 -6 12 -8 -28 -5 -29 2 -50 0 -46 -3 3 -3 46 -6 94 -6
99 0 107 10 15 18 -42 4 -52 3 -35 -4z"/>
<path d="M4208 5353 c6 -2 18 -2 25 0 6 3 1 5 -13 5 -14 0 -19 -2 -12 -5z"/>
<path d="M4758 5353 c12 -2 32 -2 45 0 12 2 2 4 -23 4 -25 0 -35 -2 -22 -4z"/>
<path d="M4320 5310 c0 -12 8 -12 35 0 18 8 17 9 -7 9 -16 1 -28 -3 -28 -9z"/>
<path d="M4418 5313 c12 -2 32 -2 45 0 12 2 2 4 -23 4 -25 0 -35 -2 -22 -4z"/>
<path d="M4658 5313 c12 -2 32 -2 45 0 12 2 2 4 -23 4 -25 0 -35 -2 -22 -4z"/>
<path d="M5015 5260 c-3 -5 3 -10 15 -10 12 0 18 5 15 10 -3 6 -10 10 -15 10
-5 0 -12 -4 -15 -10z"/>
<path d="M5955 5125 c-49 -17 -102 -76 -111 -121 -21 -111 59 -204 174 -204
87 0 153 62 159 152 5 65 -17 111 -73 150 -49 34 -98 42 -149 23z"/>
<path d="M7916 4840 c-62 -19 -106 -86 -106 -157 1 -90 69 -167 160 -179 92
-12 180 72 180 170 0 49 -30 118 -59 138 -11 8 -19 17 -16 19 2 3 -4 5 -13 6
-9 0 -39 4 -67 7 -27 3 -63 1 -79 -4z"/>
<path d="M4650 4970 c8 -5 22 -10 30 -10 13 0 13 1 0 10 -8 5 -22 10 -30 10
-13 0 -13 -1 0 -10z"/>
<path d="M4055 4861 l-30 -7 40 -7 c22 -4 54 -8 70 -8 22 -2 18 -4 -15 -8 -25
-3 63 -6 195 -7 232 -1 235 -1 85 7 -85 4 -193 11 -240 15 -79 8 -82 9 -40 15
l45 6 -40 0 c-22 0 -53 -2 -70 -6z"/>
<path d="M3718 4853 c23 -2 61 -2 85 0 23 2 4 4 -43 4 -47 0 -66 -2 -42 -4z"/>
<path d="M3883 4853 c9 -2 23 -2 30 0 6 3 -1 5 -18 5 -16 0 -22 -2 -12 -5z"/>
<path d="M4648 4853 c7 -3 16 -2 19 1 4 3 -2 6 -13 5 -11 0 -14 -3 -6 -6z"/>
<path d="M2700 4841 c-23 -7 -23 -8 12 -15 20 -3 67 -3 105 1 l68 7 -50 7
c-63 9 -103 9 -135 0z m83 -8 c-13 -2 -33 -2 -45 0 -13 2 -3 4 22 4 25 0 35
-2 23 -4z"/>
<path d="M3938 4833 c12 -2 32 -2 45 0 12 2 2 4 -23 4 -25 0 -35 -2 -22 -4z"/>
<path d="M4668 4833 c7 -3 16 -2 19 1 4 3 -2 6 -13 5 -11 0 -14 -3 -6 -6z"/>
<path d="M2408 4813 c-10 -2 -18 -9 -18 -14 0 -6 -4 -8 -8 -5 -5 3 -8 -5 -8
-17 1 -13 -4 -21 -12 -19 -10 2 -10 -2 -2 -18 11 -21 30 -27 30 -9 0 5 -4 7
-10 4 -14 -8 -13 -2 5 31 8 15 24 34 37 41 23 12 18 15 -14 6z"/>
<path d="M2534 4778 c10 -6 22 -6 26 -2 5 5 -3 10 -18 11 -22 1 -24 0 -8 -9z"/>
<path d="M2485 4770 c3 -5 8 -10 11 -10 2 0 4 5 4 10 0 6 -5 10 -11 10 -5 0
-7 -4 -4 -10z"/>
<path d="M2500 4735 c-7 -14 -10 -28 -7 -32 4 -3 7 1 7 10 0 9 10 23 22 31 16
12 18 16 7 16 -9 0 -22 -11 -29 -25z"/>
<path d="M2358 4643 c7 -3 16 -2 19 1 4 3 -2 6 -13 5 -11 0 -14 -3 -6 -6z"/>
<path d="M2445 4630 c3 -5 8 -10 11 -10 2 0 4 5 4 10 0 6 -5 10 -11 10 -5 0
-7 -4 -4 -10z"/>
<path d="M2402 4562 c-1 -18 -7 -43 -13 -54 -8 -16 -8 -22 2 -28 9 -6 14 -60
17 -204 3 -108 9 -196 13 -196 5 0 9 90 9 200 0 120 -4 200 -10 200 -5 0 -11
26 -13 58 -2 31 -4 42 -5 24z"/>
<path d="M2430 4570 c0 -5 5 -10 10 -10 6 0 10 5 10 10 0 6 -4 10 -10 10 -5 0
-10 -4 -10 -10z"/>
<path d="M2320 4503 c0 -13 5 -23 10 -23 13 0 13 11 0 30 -8 12 -10 11 -10 -7z"/>
<path d="M2436 4483 c5 -10 11 -277 14 -593 3 -316 7 -566 9 -555 2 11 4 273
5 581 1 427 -2 564 -11 573 -18 16 -26 13 -17 -6z"/>
<path d="M2393 3960 c0 -25 2 -35 4 -22 2 12 2 32 0 45 -2 12 -4 2 -4 -23z"/>
<path d="M2412 3678 c1 -155 2 -158 8 -68 11 144 11 230 0 230 -6 0 -9 -60 -8
-162z"/>
<path d="M5353 3663 c0 -14 2 -20 6 -15 4 7 20 8 44 3 21 -5 37 -5 37 0 0 5
-13 9 -29 9 -16 0 -36 7 -44 14 -13 13 -14 12 -14 -11z"/>
<path d="M5385 3630 c3 -5 10 -10 16 -10 5 0 9 5 9 10 0 6 -7 10 -16 10 -8 0
-12 -4 -9 -10z"/>
<path d="M4386 4544 c-54 -55 -54 -160 0 -203 86 -68 204 -6 204 105 0 99
-137 165 -204 98z"/>
<path d="M5765 3910 c-3 -6 1 -7 9 -4 18 7 21 14 7 14 -6 0 -13 -4 -16 -10z"/>
<path d="M5790 3889 c0 -5 5 -7 10 -4 6 3 10 8 10 11 0 2 -4 4 -10 4 -5 0 -10
-5 -10 -11z"/>
<path d="M7165 4020 c-3 -5 1 -10 9 -10 9 0 16 5 16 10 0 6 -4 10 -9 10 -6 0
-13 -4 -16 -10z"/>
<path d="M7300 3996 c0 -2 7 -17 15 -32 16 -30 19 -25 9 14 -5 18 -24 33 -24
18z"/>
<path d="M7307 3901 c-3 -13 -10 -20 -16 -16 -6 3 -11 1 -11 -4 0 -6 4 -11 9
-11 14 0 33 28 29 42 -3 7 -7 2 -11 -11z"/>
<path d="M4756 3645 c-3 -8 -1 -15 3 -15 5 0 11 7 15 15 3 8 1 15 -3 15 -5 0
-11 -7 -15 -15z"/>
<path d="M7910 3611 c0 -11 4 -22 9 -25 4 -3 6 6 3 19 -5 30 -12 33 -12 6z"/>
<path d="M8033 3585 c9 -9 17 -10 31 -3 16 9 18 7 13 -6 -4 -11 -3 -15 4 -11
18 12 4 28 -28 30 -25 2 -29 0 -20 -10z"/>
<path d="M7990 3579 c0 -5 5 -7 10 -4 6 3 10 8 10 11 0 2 -4 4 -10 4 -5 0 -10
-5 -10 -11z"/>
<path d="M7985 3540 c-2 -3 5 -6 15 -7 11 -1 22 2 24 5 3 4 -4 8 -15 8 -11 0
-22 -3 -24 -6z"/>
<path d="M4236 3601 c-7 -10 52 -26 61 -17 4 3 -4 6 -16 6 -12 0 -19 4 -16 10
3 6 -1 10 -9 10 -8 0 -17 -4 -20 -9z"/>
<path d="M7725 3051 c-39 -23 -61 -57 -76 -114 -9 -38 -8 -54 6 -96 18 -56 77
-117 122 -127 16 -3 33 -7 40 -9 19 -6 86 16 117 38 97 69 83 248 -24 304 -55
29 -141 31 -185 4z"/>
<path d="M5760 2820 l-85 -6 70 -1 c39 0 113 3 165 7 l95 7 -80 0 c-44 -1
-118 -4 -165 -7z"/>
<path d="M4730 2810 c-18 -12 -2 -12 25 0 13 6 15 9 5 9 -8 0 -22 -4 -30 -9z"/>
<path d="M4793 2812 c-6 -4 102 -7 240 -6 172 0 212 -1 127 -5 -69 -3 -120 -9
-115 -12 6 -3 24 -5 42 -3 22 2 32 -2 36 -15 3 -14 16 -17 77 -16 62 1 74 -1
78 -17 4 -15 16 -18 81 -18 43 0 81 3 85 8 11 10 70 10 77 -1 9 -12 47 13 52
34 8 31 -15 39 -117 41 l-101 2 125 6 c76 4 -30 7 -275 8 -220 1 -405 -2 -412
-6z"/>
<path d="M6098 2813 c12 -2 32 -2 45 0 12 2 2 4 -23 4 -25 0 -35 -2 -22 -4z"/>
<path d="M6008 2803 c7 -3 16 -2 19 1 4 3 -2 6 -13 5 -11 0 -14 -3 -6 -6z"/>
<path d="M6370 2806 c0 -2 9 -6 20 -9 11 -3 20 -1 20 4 0 5 -9 9 -20 9 -11 0
-20 -2 -20 -4z"/>
<path d="M4680 2740 c0 -19 3 -21 12 -12 9 9 9 15 0 24 -9 9 -12 7 -12 -12z"/>
<path d="M4714 2720 c1 -8 10 -16 21 -17 15 -1 15 0 3 3 -9 3 -19 11 -21 17
-2 7 -3 5 -3 -3z"/>
<path d="M6425 2730 c-3 -5 -1 -10 4 -10 6 0 11 5 11 10 0 6 -2 10 -4 10 -3 0
-8 -4 -11 -10z"/>
<path d="M6390 2720 c-9 -6 -10 -10 -3 -10 6 0 15 5 18 10 8 12 4 12 -15 0z"/>
<path d="M5138 2703 c12 -2 32 -2 45 0 12 2 2 4 -23 4 -25 0 -35 -2 -22 -4z"/>
<path d="M6410 2695 c0 -8 2 -15 4 -15 2 0 6 7 10 15 3 8 1 15 -4 15 -6 0 -10
-7 -10 -15z"/>
<path d="M4695 2690 c3 -5 8 -10 11 -10 2 0 4 5 4 10 0 6 -5 10 -11 10 -5 0
-7 -4 -4 -10z"/>
<path d="M4978 2693 c12 -2 32 -2 45 0 12 2 2 4 -23 4 -25 0 -35 -2 -22 -4z"/>
<path d="M5338 2693 c34 -2 90 -2 125 0 34 2 6 3 -63 3 -69 0 -97 -1 -62 -3z"/>
<path d="M5778 2693 c12 -2 32 -2 45 0 12 2 2 4 -23 4 -25 0 -35 -2 -22 -4z"/>
<path d="M6040 2680 c-101 -4 -80 -6 108 -6 128 -1 231 0 230 1 -9 7 -231 10
-338 5z"/>
<path d="M4918 2673 c23 -2 61 -2 85 0 23 2 4 4 -43 4 -47 0 -66 -2 -42 -4z"/>
<path d="M5208 2673 c18 -2 45 -2 60 0 15 2 0 4 -33 4 -33 0 -45 -2 -27 -4z"/>
<path d="M2428 2443 c12 -2 30 -2 40 0 9 3 -1 5 -23 4 -22 0 -30 -2 -17 -4z"/>
<path d="M2725 2440 c3 -5 13 -10 21 -10 8 0 14 5 14 10 0 6 -9 10 -21 10 -11
0 -17 -4 -14 -10z"/>
<path d="M2368 2433 c7 -3 16 -2 19 1 4 3 -2 6 -13 5 -11 0 -14 -3 -6 -6z"/>
<path d="M2390 2420 c-11 -7 -5 -8 20 -4 43 8 51 14 19 14 -13 0 -31 -5 -39
-10z"/>
<path d="M2680 2420 c25 -4 36 -8 26 -8 -11 -1 -17 -5 -13 -8 3 -3 15 -3 28 1
32 11 4 25 -46 23 l-40 -1 45 -7z"/>
<path d="M2785 2420 c3 -5 8 -10 11 -10 2 0 4 5 4 10 0 6 -5 10 -11 10 -5 0
-7 -4 -4 -10z"/>
<path d="M2578 2303 c12 -2 32 -2 45 0 12 2 2 4 -23 4 -25 0 -35 -2 -22 -4z"/>
</g>
</svg>
